<?xml version="1.0" encoding="utf-8"?>
<!-- Generator: Adobe Illustrator 21.0.0, SVG Export Plug-In . SVG Version: 6.00 Build 0)  -->
<svg version="1.1" id="Layer_1" xmlns="http://www.w3.org/2000/svg" xmlns:xlink="http://www.w3.org/1999/xlink" x="0px" y="0px"
	 viewBox="0 0 256 256" enable-background="new 0 0 256 256" xml:space="preserve">
<rect fill="#A05C94" width="256" height="256"/>
<polygon opacity="0.7" fill="#73467A" points="193.523,160.944 62.477,160.944 62.477,17.733 0,80.334 0,256 99.001,256 "/>
<path opacity="0.7" fill-rule="evenodd" clip-rule="evenodd" fill="#73467A" d="M79.252,185.664L9.625,256H152.43
	c0,0,14.561-13.868,22.447-20.938c-14.986,0.725-92.784,4.26-94.959-4.441C75.835,214.291,79.252,185.664,79.252,185.664z"/>
<g>
	<path fill="#9B5C8F" d="M125.404,235.489H89.123c-6.111,0-11.083-4.973-11.083-11.084V194.71c-0.024-2.928,1.112-5.709,3.199-7.812
		c2.093-2.11,4.879-3.271,7.845-3.271h77.794c6.112,0,11.084,4.972,11.084,11.083v29.695c0,6.111-4.972,11.084-11.084,11.084
		h-24.659l4.95,12.117L125.404,235.489z"/>
	<path fill="#FFFFFF" d="M166.877,185.802c4.924,0,8.909,3.984,8.909,8.908v29.695c0,4.923-3.985,8.908-8.909,8.908h-27.898
		l3.83,9.377l-16.841-9.377H89.123c-4.923,0-8.908-3.985-8.908-8.908V194.71c-0.04-4.884,3.946-8.908,8.869-8.908H166.877
		 M166.877,181.451H89.083c-3.551,0-6.885,1.391-9.39,3.915c-2.499,2.519-3.858,5.849-3.83,9.379v29.66
		c0,7.311,5.948,13.26,13.259,13.26h35.716l15.855,8.827l10.832,6.031l-4.689-11.478l-1.382-3.381h21.421
		c7.311,0,13.26-5.948,13.26-13.26V194.71C180.137,187.399,174.188,181.451,166.877,181.451L166.877,181.451z"/>
</g>
<g>
	<rect x="62.477" y="17.733" fill="#FFFFFF" width="131.046" height="143.211"/>
	<rect x="72.656" y="27.6" fill="#CCCCCC" width="90.141" height="5.116"/>
	<rect x="72.655" y="125.462" fill="#CCCCCC" width="110.839" height="11.031"/>
	<rect x="72.655" y="139.46" fill="#CCCCCC" width="110.839" height="11.033"/>
	<path fill-rule="evenodd" clip-rule="evenodd" fill="#A05C94" d="M104.456,112.605c0,0,10.527,3.227,23.454,3.227
		c0,0,12.928,0.092,23.823-3.227l0.031-44.268l11.788,5.995c0,0,1.519,1.335,2.771-0.092c0.704-0.842,6.148-8.782,8.487-12.659
		c1.104-1.862-0.085-2.005-0.085-2.005l-20.037-11.804c0,0-2.401-2.951-9.05-2.951h-5.725c0,0,0.186,11.896-12.004,11.896
		c0,0-12.004-0.738-11.819-11.896h-5.725c0,0-6.833,0.553-9.234,2.951L83.479,58.074l-2.415,1.41c0,0-0.832,1.015,0.092,2.767
		l8.526,12.174c0,0,1.385,1.199,2.955-0.185l11.85-5.903L104.456,112.605z"/>
</g>
<g>
	<g>
		<path fill="#5D88B3" stroke="#FFFFFF" stroke-width="7" stroke-miterlimit="10" d="M106.697,216.879
			c0-2.105,0.798-3.798,2.396-5.079c1.597-1.281,3.543-1.922,5.836-1.922c0.652,0,1.263,0.105,1.832,0.316
			c0.569,0.211,0.981,0.408,1.236,0.594c0.255,0.185,0.43,0.341,0.525,0.469v-1.198c0-1.276-1.15-1.914-3.451-1.914
			c-1.73,0-3.684,0.478-5.862,1.432l-1.674-3.791c3.08-1.595,5.918-2.392,8.515-2.392c1.207,0,2.362,0.118,3.466,0.355
			s2.169,0.614,3.195,1.133c1.026,0.519,1.846,1.28,2.462,2.283c0.615,1.003,0.923,2.174,0.923,3.511v6.918h2.197v4.751h-7.932
			l-0.892-1.672c-0.608,0.819-1.376,1.406-2.305,1.763c-0.929,0.356-1.81,0.535-2.644,0.535c-2.096,0-3.924-0.523-5.484-1.567
			C107.476,220.358,106.697,218.85,106.697,216.879z M114.27,216.513c0,0.505,0.181,0.915,0.542,1.231
			c0.362,0.317,0.821,0.475,1.378,0.475c0.51,0,0.978-0.12,1.405-0.362c0.427-0.241,0.735-0.521,0.925-0.839v-1.361
			c-0.415-0.686-1.127-1.029-2.134-1.029C114.976,214.617,114.27,215.245,114.27,216.513z"/>
		<path fill="#5D88B3" stroke="#FFFFFF" stroke-width="7" stroke-miterlimit="10" d="M128.631,218.684l3.733-3.876
			c1.583,1.584,3.191,2.376,4.823,2.376c1.024,0,1.828-0.244,2.411-0.733c0.583-0.488,0.875-1.179,0.875-2.072
			c0-1.786-1.012-2.679-3.037-2.679h-2.733v-4.751h2.662c0.905,0,1.649-0.202,2.233-0.605c0.583-0.403,0.875-0.98,0.875-1.731
			c0-0.861-0.322-1.524-0.965-1.988c-0.643-0.464-1.393-0.696-2.251-0.696c-1.465,0-2.894,0.68-4.287,2.038l-3.537-4.127
			c0.786-0.857,1.908-1.649,3.367-2.375c1.458-0.726,2.944-1.09,4.457-1.09c2.953,0,5.245,0.685,6.877,2.056
			c1.631,1.37,2.447,3.216,2.447,5.537c0,1.664-0.899,3.178-2.697,4.54c2.262,1.703,3.394,3.792,3.394,6.266
			c0,2.536-1.012,4.513-3.037,5.93c-2.024,1.417-4.388,2.126-7.091,2.126c-1.679,0-3.337-0.417-4.974-1.251
			C130.539,220.744,129.357,219.78,128.631,218.684z"/>
	</g>
	<g>
		<path fill="#5D88B3" d="M106.698,217.157c0-2.105,0.799-3.798,2.396-5.079c1.597-1.281,3.542-1.922,5.835-1.922
			c0.652,0,1.262,0.105,1.832,0.316c0.569,0.211,0.981,0.409,1.236,0.594c0.255,0.185,0.43,0.341,0.525,0.469v-1.198
			c0-1.276-1.15-1.914-3.451-1.914c-1.73,0-3.684,0.477-5.862,1.431l-1.674-3.79c3.08-1.595,5.918-2.392,8.515-2.392
			c1.207,0,2.362,0.118,3.466,0.355c1.104,0.236,2.169,0.614,3.195,1.133c1.025,0.519,1.846,1.28,2.462,2.283
			c0.615,1.003,0.923,2.174,0.923,3.511v6.918h2.197v4.751h-7.932l-0.892-1.672c-0.608,0.819-1.376,1.406-2.305,1.763
			c-0.929,0.356-1.81,0.535-2.644,0.535c-2.097,0-3.924-0.523-5.483-1.568C107.477,220.636,106.698,219.128,106.698,217.157z
			 M114.271,216.79c0,0.504,0.181,0.915,0.543,1.231c0.362,0.317,0.821,0.475,1.378,0.475c0.51,0,0.978-0.12,1.405-0.362
			c0.427-0.241,0.735-0.521,0.925-0.838v-1.361c-0.415-0.686-1.127-1.029-2.134-1.029
			C114.976,214.895,114.271,215.523,114.271,216.79z"/>
		<path fill="#5D88B3" d="M128.632,218.961l3.733-3.876c1.584,1.584,3.191,2.376,4.823,2.376c1.024,0,1.828-0.244,2.411-0.733
			c0.583-0.488,0.875-1.179,0.875-2.072c0-1.786-1.012-2.679-3.036-2.679h-2.733v-4.751h2.662c0.905,0,1.649-0.201,2.232-0.604
			c0.583-0.403,0.875-0.98,0.875-1.732c0-0.861-0.322-1.523-0.965-1.987c-0.643-0.464-1.393-0.696-2.251-0.696
			c-1.465,0-2.894,0.68-4.287,2.037l-3.537-4.127c0.786-0.857,1.908-1.649,3.367-2.375c1.458-0.726,2.944-1.09,4.457-1.09
			c2.953,0,5.245,0.685,6.876,2.056c1.631,1.37,2.447,3.216,2.447,5.537c0,1.665-0.899,3.178-2.697,4.54
			c2.262,1.703,3.394,3.792,3.394,6.265c0,2.536-1.012,4.513-3.036,5.93c-2.024,1.417-4.388,2.126-7.091,2.126
			c-1.679,0-3.337-0.417-4.974-1.251C130.54,221.021,129.358,220.057,128.632,218.961z"/>
	</g>
</g>
</svg>
